<svg id="Camada_1" data-name="Camada 1" xmlns="http://www.w3.org/2000/svg" viewBox="0 0 569.43 569.45"><path d="M196.8,48.2l37.95,66.4a9.5,9.5,0,0,0,5.93,4.5l35.4,8.85L397.5,249.37,410.92,236,287.59,112.64a9.42,9.42,0,0,0-4.4-2.5l-34-8.54L216.87,45l27.7-27.69,56.59,32.34,8.54,34a9.44,9.44,0,0,0,2.49,4.41L435.52,211.43,448.93,198,327.51,76.59,318.66,41.2a9.54,9.54,0,0,0-4.5-5.94L247.75-2.68a9.49,9.49,0,0,0-11.38,1.52l-38,37.95A9.5,9.5,0,0,0,196.8,48.2Zm0,0" transform="translate(-195.55 4)" style="fill:#010185"/><path d="M591.2,183,382.5,391.67l-13.41-13.42,208.7-208.7Zm0,0" transform="translate(-195.55 4)" style="fill:#010185"/><path d="M346,399.05a9.48,9.48,0,0,0-8.14-4.6H280.93a9.47,9.47,0,0,0-8.13,4.6l-28.46,47.43a9.47,9.47,0,0,0,0,9.77l28.46,47.44a9.48,9.48,0,0,0,8.13,4.59h56.91a9.49,9.49,0,0,0,8.14-4.59l28.45-47.44a9.47,9.47,0,0,0,0-9.77Zm-13.5,90.26H286.3l-22.77-37.94,22.77-37.95h46.18l22.77,37.95Zm0,0" transform="translate(-195.55 4)" style="fill:#010185"/><path d="M650.9,223.69A113.42,113.42,0,0,0,761.24,82.35a9.47,9.47,0,0,0-15.9-4.42l-59.06,59-46.85-15.62L623.8,74.48l59.06-59.06A9.49,9.49,0,0,0,678.41-.5,113.51,113.51,0,0,0,537.06,109.85a112.13,112.13,0,0,0,2.31,22.23L331.61,339.84a111.37,111.37,0,0,0-22.22-2.31A113.84,113.84,0,1,0,423.22,451.37a110.66,110.66,0,0,0-2.31-22.23l49.74-49.74,21.76,21.76a9.49,9.49,0,0,0,13.41,0l4.74-4.75a10.64,10.64,0,0,1,15.07,15l-4.76,4.76a9.47,9.47,0,0,0,0,13.41L634,542.78A76.57,76.57,0,1,0,742.8,435l-.49-.49L629.14,321.34a9.49,9.49,0,0,0-13.41,0L611,326.08a10.64,10.64,0,0,1-15.07-15,0,0,0,0,0,0,0l4.75-4.74a9.49,9.49,0,0,0,0-13.41l-21.76-21.75,49.74-49.74a111.38,111.38,0,0,0,22.23,2.3Zm37.27,322.54A57.53,57.53,0,0,1,668,542.55l74.09-74.09a57.52,57.52,0,0,1-53.91,77.77ZM580.7,299.68a29.61,29.61,0,0,0,41.74,41.68L728.9,447.91c1.15,1.16,2.23,2.39,3.28,3.63l-81.11,81.1c-1.25-1-2.47-2.12-3.62-3.28L540.9,422.82a29.61,29.61,0,0,0-41.74-41.69L484,366l81.54-81.41ZM619,204.27,403.8,419.43a9.5,9.5,0,0,0-2.5,9,95.5,95.5,0,1,1-69-69,9.55,9.55,0,0,0,9-2.5L556.48,141.79a9.45,9.45,0,0,0,2.49-9A94.4,94.4,0,0,1,656.28,15.15l-50,50.06a9.46,9.46,0,0,0-2.3,9.7l19,56.92a9.48,9.48,0,0,0,6,6l56.92,19a9.49,9.49,0,0,0,9.7-2.29l50-50c.11,1.81.17,3.6.17,5.38A94.37,94.37,0,0,1,628,201.77a9.47,9.47,0,0,0-9,2.5Zm0,0" transform="translate(-195.55 4)" style="fill:#010185"/><path d="M686.07,473.12l-13.41,13.41L577.8,391.67l13.41-13.41Zm0,0" transform="translate(-195.55 4)" style="fill:#010185"/></svg>