<?xml version="1.0" encoding="iso-8859-1"?>
<!-- Generator: Adobe Illustrator 24.2.1, SVG Export Plug-In . SVG Version: 6.00 Build 0)  -->
<svg version="1.1" id="Layer_1" xmlns="http://www.w3.org/2000/svg" xmlns:xlink="http://www.w3.org/1999/xlink" x="0px" y="0px"
	 viewBox="-49 141 512 512" style="enable-background:new -49 141 512 512;" xml:space="preserve">
<path style="fill:#010185;" d="M390.057,292.898c3.678-2.282,4.81-7.113,2.528-10.791c-19.228-30.997-46.14-56.907-77.826-74.932
	c-32.679-18.591-69.942-28.417-107.758-28.417C86.661,178.758-11.242,276.661-11.242,397S86.661,615.242,207,615.242
	S425.242,517.339,425.242,397c0-28.091-5.263-55.44-15.643-81.288c-1.613-4.017-6.178-5.963-10.193-4.352
	c-4.017,1.613-5.964,6.176-4.352,10.193c8.342,20.776,13.117,42.604,14.246,65.025h-14.885c-4.329,0-7.837,3.509-7.837,7.837
	s3.508,7.837,7.837,7.837h15.086c-2.728,106.669-88.326,193.084-194.665,197.15V581.83c0-4.328-3.508-7.837-7.837-7.837
	c-4.328,0-7.837,3.509-7.837,7.837v17.572c-50.601-1.935-96.502-22.511-131.016-55.054l11.871-11.87
	c3.061-3.06,3.061-8.023,0-11.082c-3.061-3.06-8.023-3.06-11.082,0l-11.779,11.778c-31.645-34.79-51.371-80.603-52.659-130.922
	h15.086c4.328,0,7.837-3.509,7.837-7.837s-3.509-7.837-7.837-7.837H4.695c2.526-49.58,22.967-94.505,54.955-128.432l9.285,9.285
	c1.53,1.53,3.536,2.296,5.541,2.296s4.011-0.765,5.541-2.296c3.061-3.061,3.061-8.023,0-11.082l-9.192-9.193
	c34.192-31.101,79.037-50.674,128.336-52.559V207c0,4.328,3.509,7.837,7.837,7.837c4.329,0,7.837-3.509,7.837-7.837v-12.401
	c32.397,1.253,64.11,10.235,92.173,26.199c13.022,7.406,25.169,16.254,36.219,26.304l-9.248,9.248
	c-3.061,3.061-3.061,8.023,0,11.083c1.531,1.53,3.537,2.295,5.542,2.295c2.005,0,4.011-0.765,5.542-2.295l9.336-9.336
	c9.322,9.884,17.681,20.686,24.866,32.271C381.548,294.047,386.379,295.179,390.057,292.898z"/>
<path style="fill:#010185;" d="M207,141c-68.38,0-132.668,26.628-181.019,74.981S-49,328.62-49,397s26.628,132.668,74.981,181.019
	C74.334,626.371,138.62,653,207,653c46.869,0,92.717-12.783,132.587-36.966c3.701-2.245,4.881-7.065,2.636-10.765
	c-2.244-3.701-7.065-4.88-10.765-2.636C294.04,625.33,251.003,637.327,207,637.327c-64.194,0-124.545-24.998-169.937-70.39
	C-8.328,521.544-33.327,461.193-33.327,397s24.998-124.545,70.39-169.937c45.392-45.39,105.743-70.39,169.937-70.39
	s124.545,24.999,169.937,70.39c45.391,45.392,70.39,105.743,70.39,169.937c0,71.006-31.166,138.007-85.508,183.824
	c-3.309,2.79-3.73,7.733-0.94,11.042c2.792,3.309,7.735,3.73,11.042,0.939C429.803,544.006,463,472.636,463,397
	c0-68.38-26.628-132.668-74.981-181.019S275.38,141,207,141z"/>
<path style="fill:#010185;" d="M203.229,257.523c26.544,0,52.344,7.508,74.611,21.712c18.283,11.662,33.508,27.367,44.585,45.829
	l-15.844-7.769c-3.887-1.906-8.581-0.3-10.487,3.586c-1.905,3.886-0.3,8.581,3.587,10.487l41.652,20.425
	c1.092,0.536,2.273,0.8,3.449,0.8c1.531,0,3.055-0.448,4.37-1.33c2.325-1.561,3.639-4.243,3.45-7.036l-3.138-46.284
	c-0.293-4.319-4.067-7.588-8.348-7.289c-4.319,0.293-7.582,4.03-7.288,8.349l1.116,16.464
	c-12.239-19.877-28.844-36.798-48.673-49.447c-24.79-15.812-53.505-24.171-83.041-24.171c-85.253,0-154.611,69.358-154.611,154.611
	c0,0.172,0.248,9.857,0.644,14.206c0.371,4.069,3.789,7.126,7.795,7.126c0.238,0,0.48-0.01,0.721-0.032
	c4.31-0.393,7.486-4.206,7.093-8.516c-0.357-3.914-0.58-12.629-0.58-12.784C64.291,319.85,126.618,257.523,203.229,257.523z"/>
<path style="fill:#010185;" d="M343.758,455.731c0.724,0.209,1.454,0.308,2.172,0.308c3.404,0,6.538-2.236,7.526-5.671
	c3.626-12.588,5.464-25.668,5.464-38.872c0-10.352-5.612-17.161-9.816-21.366l-23.24-23.398c-7.462-7.461-19.601-7.46-27.062,0.001
	L276.837,388.7c-3.613,3.613-5.603,8.419-5.603,13.529s1.989,9.915,5.603,13.529l21.483,21.483
	c-8.284,25.717-28.589,46.024-54.309,54.306l-21.482-21.482c-7.458-7.458-19.599-7.458-27.06,0.002l-21.967,21.967
	c-3.614,3.613-5.605,8.419-5.605,13.53c0,5.111,1.991,9.916,5.624,13.548l23.361,23.203c4.222,4.221,11.034,9.834,21.385,9.834
	c24.727,0,49.064-6.537,70.381-18.905c20.668-11.992,38.084-29.168,50.366-49.672c2.225-3.713,1.018-8.526-2.696-10.75
	c-3.71-2.225-8.525-1.017-10.749,2.696c-10.922,18.233-26.409,33.507-44.787,44.17c-18.929,10.983-40.547,16.788-62.515,16.788
	c-3.592,0-6.578-1.519-10.323-5.263l-7.688-7.637l26.81-26.809l3.106,3.106c-0.189,1.002-0.184,2.056,0.047,3.115
	c0.8,3.665,4.045,6.168,7.65,6.168c0.553,0,1.114-0.059,1.677-0.182c1.479-0.323,2.939-0.69,4.394-1.076
	c0.022-0.006,0.043-0.011,0.066-0.018c34.397-9.19,61.468-36.265,70.653-70.664c0.001-0.001,0.001-0.003,0.002-0.004
	c0.392-1.468,0.763-2.945,1.089-4.44c0.922-4.229-1.759-8.404-5.986-9.327c-1.061-0.231-2.117-0.236-3.119-0.047l-3.104-3.104
	l26.81-26.81l7.654,7.707c3.725,3.725,5.244,6.71,5.244,10.303c0,11.737-1.633,23.358-4.851,34.536
	C337.197,450.191,339.599,454.533,343.758,455.731z M189.135,512.533l-4.552-4.521c-0.882-0.882-1.014-1.911-1.014-2.446
	s0.132-1.565,1.014-2.447l21.967-21.968c1.351-1.35,3.547-1.35,4.894-0.001l4.537,4.537L189.135,512.533z M292.455,409.214
	l-4.536-4.536c-1.349-1.349-1.349-3.544,0-4.893l21.967-21.968c1.349-1.35,3.546-1.35,4.877-0.021l4.54,4.57L292.455,409.214z"/>
<path style="fill:#010185;" d="M185.591,427.947c0-4.328-3.509-7.837-7.837-7.837H136.5c22.654-11.719,40.976-22.792,45.554-35.635
	c1.509-4.232,2.274-8.624,2.274-13.054c0-21.211-17.256-38.468-38.467-38.468c-21.211,0-38.468,17.256-38.468,38.468
	c0,4.328,3.509,7.837,7.837,7.837s7.837-3.509,7.837-7.837c0-12.569,10.225-22.794,22.794-22.794
	c12.568,0,22.793,10.225,22.793,22.794c0,2.631-0.459,5.252-1.364,7.791c-3.384,9.495-31.734,23.845-45.357,30.741
	c-5.088,2.576-9.481,4.799-12.699,6.652c-3.465,1.996-9.915,5.71-8.312,12.421c0.602,2.524,2.77,6.758,10.517,6.758h66.314
	C182.082,435.783,185.591,432.275,185.591,427.947z"/>
<path style="fill:#010185;" d="M236.111,435.783c4.328,0,7.837-3.509,7.837-7.837v-16.472h9.358c4.329,0,7.837-3.509,7.837-7.837
	s-3.508-7.837-7.837-7.837h-9.358V340.79c0-3.334-2.111-6.305-5.26-7.401c-3.149-1.096-6.647-0.08-8.719,2.534l-49.803,62.849
	c-1.867,2.356-2.221,5.572-0.913,8.279c1.308,2.706,4.049,4.425,7.055,4.425h41.966v16.472
	C228.274,432.275,231.783,435.783,236.111,435.783z M202.517,395.8l25.757-32.504V395.8H202.517z"/>
<path style="fill:#010185;" d="M83.964,494.856c1.55,1.877,3.79,2.847,6.048,2.847c1.758,0,3.525-0.588,4.985-1.794
	c3.337-2.756,3.809-7.696,1.053-11.033c-2.511-3.041-4.92-6.224-7.162-9.463c-2.463-3.559-7.345-4.448-10.904-1.985
	c-3.559,2.463-4.448,7.345-1.985,10.904C78.493,487.934,81.172,491.474,83.964,494.856z"/>
<path style="fill:#010185;" d="M117.227,505.589c-3.398-2.681-8.325-2.1-11.007,1.297c-2.681,3.397-2.101,8.326,1.297,11.007
	c3.443,2.718,7.044,5.319,10.702,7.73c1.329,0.876,2.826,1.296,4.307,1.296c2.545,0,5.043-1.239,6.549-3.523
	c2.382-3.613,1.386-8.474-2.228-10.857C123.559,510.369,120.322,508.032,117.227,505.589z"/>
<path style="fill:#010185;" d="M70.69,438.269c-1.301-4.127-5.701-6.419-9.83-5.119c-4.128,1.301-6.42,5.702-5.119,9.83
	c1.318,4.182,2.835,8.358,4.508,12.413c1.248,3.023,4.168,4.85,7.247,4.85c0.996,0,2.008-0.191,2.985-0.595
	c4.001-1.651,5.906-6.232,4.256-10.233C73.235,445.775,71.873,442.024,70.69,438.269z"/>
<path style="fill:#010185;" d="M147.516,540.728c4.093,1.582,8.303,3.004,12.515,4.227c0.73,0.212,1.466,0.313,2.19,0.313
	c3.397,0,6.527-2.227,7.522-5.653c1.208-4.157-1.183-8.504-5.339-9.711c-3.781-1.098-7.562-2.375-11.237-3.795
	c-4.035-1.561-8.574,0.447-10.134,4.485C141.471,534.63,143.479,539.168,147.516,540.728z"/>
</svg>
