<svg id="Camada_3" data-name="Camada 3" xmlns="http://www.w3.org/2000/svg" viewBox="0 0 512 512"><path d="M559.7,247.69l66.66,47.45a8.53,8.53,0,0,0,9.9,0l66.67-47.45a52.76,52.76,0,0,0,22.25-42.79v-101a8.55,8.55,0,0,0-5.12-7.83L634.73,59.24a8.45,8.45,0,0,0-6.76,0L542.63,96.1a8.53,8.53,0,0,0-5.11,7.83v101a52.72,52.72,0,0,0,22.18,42.79Zm-5.19-138.15,76.8-33.17,76.8,33.17V204.9A35.64,35.64,0,0,1,693,233.84l-61.71,43.87-61.7-43.92a35.66,35.66,0,0,1-15.1-28.89Zm0,0" transform="translate(-247.31 -21.36)" style="fill:#010185"/><path d="M609.12,224.45A8.54,8.54,0,0,0,620.91,223l68.27-85.33A8.54,8.54,0,1,0,675.85,127L612.7,205.84,585.23,185.2A8.53,8.53,0,0,0,575,198.85Zm0,0" transform="translate(-247.31 -21.36)" style="fill:#010185"/><path d="M264.38,473.63h8.53v34.13a25.6,25.6,0,0,0,25.6,25.6h51.2a25.6,25.6,0,0,0,25.6-25.6V473.63h204.8v34.13a25.6,25.6,0,0,0,25.6,25.6h51.2a25.6,25.6,0,0,0,25.6-25.6V473.63h8.54a17.07,17.07,0,0,0,17.06-17.07v-128a42.21,42.21,0,0,0-14.75-32.17l29.35-20.89a86.94,86.94,0,0,0,36.6-70.6V81.5a8.53,8.53,0,0,0-5.12-7.83L634.73,22.06a8.54,8.54,0,0,0-6.76,0L508.43,73.67a8.54,8.54,0,0,0-5.12,7.83v33.72H374.2A42.66,42.66,0,0,0,334,143.71L283.71,286.52a42.62,42.62,0,0,0-36.4,42v128a17.07,17.07,0,0,0,17.07,17.07Zm93.87,34.13a8.53,8.53,0,0,1-8.54,8.53h-51.2a8.53,8.53,0,0,1-8.53-8.53V473.63h68.27Zm-34.14-51.2H307.05V439.49h17.06Zm341.34,51.2a8.54,8.54,0,0,1-8.54,8.53h-51.2a8.53,8.53,0,0,1-8.53-8.53V473.63h68.27Zm-17.07-51.2H631.31V439.49h17.07Zm-128-369.45L631.31,39.18,742.25,87.11V204.87a69.83,69.83,0,0,1-29.44,56.69l-81.5,58.05-81.5-58a69.82,69.82,0,0,1-29.43-56.69Zm128,250a8.53,8.53,0,0,1,8.53,8.54v17.06a8.53,8.53,0,0,1-8.53,8.53h-51.2a8.53,8.53,0,0,1-8.54-8.53,25.61,25.61,0,0,1,25.61-25.6ZM503.31,166.43v17.06H443.58V166.43Zm0-17.07H486.25V132.29h17.06Zm-153.23,0a25.61,25.61,0,0,1,24.12-17.07h95v17.07h-25.6a17.07,17.07,0,0,0-17.07,17.07v17.06a17.07,17.07,0,0,0,17.07,17.07h59.73v4.34a87,87,0,0,0,36.6,70.6l14.6,10.39H302Zm-85.7,179.2A25.6,25.6,0,0,1,290,303H578.49l25.79,18.36a42.66,42.66,0,0,0-32.7,41.37,25.6,25.6,0,0,0,25.6,25.6h51.2a25.6,25.6,0,0,0,25.6-25.6V345.63a25.63,25.63,0,0,0-16.34-23.81l21.13-15a25.26,25.26,0,0,1,12.28,21.78v128h-25.6V439.49a17.07,17.07,0,0,0-17.07-17.06H631.31a17.06,17.06,0,0,0-17.06,17.06v17.07H341.18V439.49a17.06,17.06,0,0,0-17.07-17.06H307.05A17.06,17.06,0,0,0,290,439.49v17.07h-25.6Zm0,0" transform="translate(-247.31 -21.36)" style="fill:#010185"/><path d="M400.91,149.36h-14.6a25.65,25.65,0,0,0-24.15,17.07l-32,91a8.53,8.53,0,0,0,16.1,5.67l32-91a8.51,8.51,0,0,1,8-5.7h14.6a8.54,8.54,0,1,0,0-17.07Zm0,0" transform="translate(-247.31 -21.36)" style="fill:#010185"/><path d="M307.05,388.29h51.2a25.6,25.6,0,0,0,25.6-25.6A42.73,42.73,0,0,0,341.18,320H307.05a25.6,25.6,0,0,0-25.6,25.61v17.06a25.6,25.6,0,0,0,25.6,25.6Zm-8.54-42.66a8.54,8.54,0,0,1,8.54-8.54h34.13a25.6,25.6,0,0,1,25.6,25.6,8.53,8.53,0,0,1-8.53,8.53h-51.2a8.53,8.53,0,0,1-8.54-8.53Zm0,0" transform="translate(-247.31 -21.36)" style="fill:#010185"/><path d="M418,439.49H537.45a17.06,17.06,0,0,0,17.06-17.06V388.29a17.06,17.06,0,0,0-17.06-17.07H418a17.07,17.07,0,0,0-17.07,17.07v34.14A17.06,17.06,0,0,0,418,439.49Zm0-51.2H537.45v34.14H418Zm0,0" transform="translate(-247.31 -21.36)" style="fill:#010185"/></svg>