<?xml version="1.0" encoding="iso-8859-1"?>
<!-- Generator: Adobe Illustrator 24.2.1, SVG Export Plug-In . SVG Version: 6.00 Build 0)  -->
<svg version="1.1" id="Camada_1" xmlns="http://www.w3.org/2000/svg" xmlns:xlink="http://www.w3.org/1999/xlink" x="0px" y="0px"
	 viewBox="0 0 960 560" style="enable-background:new 0 0 960 560;" xml:space="preserve">
<g>
	<path style="fill:#010185;" d="M748.769,494.009l-7.82-7.822c-3.134-3.132-8.217-3.132-11.35,0c-3.134,3.134-3.134,8.217,0,11.35
		l6.683,6.684l-34.055,34.055l-57.902-57.891l34.06-34.06l27.009,27.013c3.138,3.134,8.216,3.134,11.355,0
		c3.133-3.138,3.133-8.221,0-11.355l-32.673-32.672c-0.006-0.006-0.011-0.011-0.017-0.017l-22.705-22.705
		c-0.006-0.006-0.011-0.006-0.016-0.017l-20.04-20.035c-2.727-2.731-6.356-4.237-10.219-4.237c-3.857,0-7.487,1.506-10.218,4.237
		l-1.132,1.132l-28.726-28.731c20.531-25.648,35.36-56.046,42.557-89.26h56.56c4.437,0,8.026-3.595,8.026-8.027
		c0-4.431-3.589-8.027-8.026-8.027h-53.717c0.708-5.106,1.237-10.268,1.583-15.474h90.397c4.431,0,8.027-3.596,8.027-8.027
		c0-4.438-3.596-8.027-8.027-8.027h-89.923c-0.039-5.196-0.255-10.358-0.646-15.481h52.307c4.437,0,8.026-3.596,8.026-8.027
		c0-4.437-3.589-8.027-8.026-8.027h-54.141c-5.608-36.903-20.608-71.427-44.207-101.239c-2.753-3.479-7.803-4.064-11.277-1.316
		c-3.478,2.753-4.064,7.803-1.316,11.277c28.291,35.738,43.242,78.774,43.242,124.457c0,110.655-90.029,200.684-200.684,200.684
		s-200.684-90.029-200.684-200.684S311.084,23.055,421.738,23.055c50.026,0,97.945,18.514,134.932,52.133
		c3.284,2.983,8.361,2.737,11.338-0.541c2.983-3.282,2.743-8.361-0.541-11.338C527.521,26.996,475.766,7,421.738,7
		C302.226,7,205,104.226,205,223.738c0,105.514,75.791,193.642,175.794,212.842v54.156c0,4.431,3.589,8.027,8.027,8.027
		c4.431,0,8.027-3.596,8.027-8.027v-51.699c5.106,0.585,10.268,0.998,15.474,1.222v88.228c0,4.431,3.596,8.027,8.027,8.027
		c4.438,0,8.027-3.596,8.027-8.027v-88.122c5.207-0.157,10.369-0.491,15.481-1.009v51.381c0,4.431,3.596,8.027,8.027,8.027
		c4.437,0,8.027-3.596,8.027-8.027V437.11c36.245-6.467,69.386-21.981,97.03-44.107l28.731,28.726l-1.137,1.132
		c-2.731,2.731-4.231,6.361-4.231,10.218c0,3.863,1.5,7.492,4.231,10.219l20.046,20.045c0,0.006,0.006,0.006,0.011,0.011
		l22.705,22.705c0,0.006,0.006,0.011,0.011,0.017l64.693,64.687c2.732,2.731,6.361,4.237,10.218,4.237
		c3.863,0,7.492-1.506,10.218-4.231l36.329-36.329c2.726-2.726,4.231-6.355,4.231-10.218
		C753,500.364,751.494,496.735,748.769,494.009L748.769,494.009z M580.49,371.129l27.884,27.889l-11.35,11.355l-27.895-27.889
		C573.053,378.844,576.844,375.053,580.49,371.129L580.49,371.129z M632.975,469.03l-11.355-11.35l34.06-34.056l11.35,11.351
		L632.975,469.03z M631.079,399.024l13.246,13.245l-34.056,34.056l-13.245-13.246L631.079,399.024z M631.079,399.024"/>
	<path style="fill:#010185;" d="M309.952,370.684c32.148,24.165,70.775,37.198,111.786,37.684
		c101.802,0,184.629-82.826,184.629-184.629S523.541,39.109,421.738,39.109c-49.129,0-95.342,19.233-130.116,54.145
		c-34.628,34.775-53.989,81.083-54.513,130.4c-0.48,45.4,16.016,89.037,46.453,122.875c2.96,3.295,8.039,3.568,11.332,0.602
		c3.301-2.965,3.568-8.044,0.602-11.338c-27.738-30.839-42.774-70.602-42.333-111.97c0.48-45.104,18.178-87.449,49.831-119.234
		c31.741-31.87,73.913-49.424,118.743-49.424c92.95,0,168.574,75.624,168.574,168.574s-75.624,168.574-168.48,168.574
		c-37.482-0.445-72.831-12.364-102.236-34.461c-3.541-2.666-8.574-1.952-11.238,1.594
		C305.694,362.99,306.407,368.019,309.952,370.684L309.952,370.684z M309.952,370.684"/>
	<path style="fill:#010185;" d="M452.242,80.316h-55.656c-6.784,0-12.309,5.524-12.309,12.309v28.363h-51.91
		c-6.784,0-12.309,5.524-12.309,12.309v86.16h-10.742c-4.438,0-8.027,3.596-8.027,8.027s3.589,8.027,8.027,8.027h230.194
		c4.438,0,8.027-3.596,8.027-8.027s-3.589-8.027-8.027-8.027H528.77v-45.488c0-6.784-5.524-12.309-12.309-12.309h-51.91V92.625
		C464.551,85.841,459.027,80.316,452.242,80.316L452.242,80.316z M336.113,137.043h48.164v82.414h-48.164V137.043z M400.332,96.371
		h48.164v123.086h-48.164V96.371z M512.715,177.715v41.742h-48.164v-41.742H512.715z M512.715,177.715"/>
	<path style="fill:#010185;" d="M514.32,303.532h-37.789l-17.171-43.883c-1.214-3.105-4.186-5.112-7.548-5.106
		c-3.328,0.033-6.299,2.112-7.452,5.24l-23.464,63.265l-16.394-46.48c-1.053-2.973-3.746-5.056-6.89-5.324
		c-3.138-0.273-6.155,1.327-7.693,4.08l-15.742,28.208h-37.695c-4.433,0-8.027,3.596-8.027,8.027c0,4.433,3.595,8.027,8.027,8.027
		h42.406c2.91,0,5.591-1.571,7.007-4.114l9.382-16.801l17.861,50.639c1.126,3.19,4.124,5.33,7.508,5.357h0.061
		c3.357,0,6.361-2.085,7.526-5.234l23.854-64.313l11.488,29.367c1.204,3.077,4.17,5.1,7.471,5.1h43.275
		c4.431,0,8.027-3.591,8.027-8.027C522.348,307.128,518.751,303.532,514.32,303.532L514.32,303.532z M514.32,303.532"/>
</g>
</svg>
